# xmcd
#
# Track frame offsets: 
#        150
#        7833
#        34384
#        48819
#        65958
#        79900
#        90782
#        102705
#        115872
#        133514
#        151546
#
# Disc length: 2290 seconds
#
# Revision: 0
# Processed by: cddbd v1.5.2PL0 Copyright (c) Steve Scherf et al.
# Submitted via: ExactAudioCopy v0.99pb5
#
DISCID=8008f00b
DTITLE=Gospel Singers - Keep Australia Peacful
DYEAR=2006
DGENRE=Gospel
TTITLE0=Malo Lelei (Our Tongan Greetings)
TTITLE1=It Won't Happen Again
TTITLE2=Deeper River
TTITLE3=Keep Australia Peacful
TTITLE4=Steal Away Home
TTITLE5=Sweet By and By
TTITLE6=Jesus Lover of My Soul
TTITLE7=Power in the Blood
TTITLE8=Just As I Am
TTITLE9=Shine on Us
TTITLE10=Go Light Your World
EXTD=
EXTT0=
EXTT1=
EXTT2=
EXTT3=
EXTT4=
EXTT5=
EXTT6=
EXTT7=
EXTT8=
EXTT9=
EXTT10=
PLAYORDER=
